<?xml version="1.0" encoding="UTF-8" standalone="no"?>
<!DOCTYPE svg PUBLIC "-//W3C//DTD SVG 1.1//EN"
 "http://www.w3.org/Graphics/SVG/1.1/DTD/svg11.dtd">
<!-- Generated by graphviz version 12.2.1 (20241206.2353)
 -->
<!-- Title: finite_state_machine Pages: 1 -->
<svg width="452pt" height="155pt"
 viewBox="0.00 0.00 452.00 155.00" xmlns="http://www.w3.org/2000/svg" xmlns:xlink="http://www.w3.org/1999/xlink">
<g id="graph0" class="graph" transform="scale(1 1) rotate(0) translate(4 151)">
<title>finite_state_machine</title>
<polygon fill="white" stroke="none" points="-4,4 -4,-151 448,-151 448,4 -4,4"/>
<!-- 4 -->
<g id="node1" class="node">
<title>4</title>
<ellipse fill="none" stroke="black" cx="320.25" cy="-77" rx="18" ry="18"/>
<text text-anchor="middle" x="320.25" y="-71.2" font-family="Helvetica,Arial,sans-serif" font-size="14.00">4</text>
</g>
<!-- 5 -->
<g id="node2" class="node">
<title>5</title>
<ellipse fill="none" stroke="black" cx="426" cy="-108" rx="18" ry="18"/>
<text text-anchor="middle" x="426" y="-102.2" font-family="Helvetica,Arial,sans-serif" font-size="14.00">5</text>
</g>
<!-- 4&#45;&gt;5 -->
<g id="edge1" class="edge">
<title>4&#45;&gt;5</title>
<path fill="none" stroke="black" d="M337.92,-81.98C353.95,-86.77 378.48,-94.1 397.42,-99.76"/>
<polygon fill="black" stroke="black" points="396.34,-103.09 406.92,-102.6 398.34,-96.38 396.34,-103.09"/>
<text text-anchor="middle" x="373.12" y="-98.79" font-family="Helvetica,Arial,sans-serif" font-size="14.00">14/14</text>
</g>
<!-- 1 -->
<g id="node3" class="node">
<title>1</title>
<ellipse fill="none" stroke="black" cx="222" cy="-129" rx="18" ry="18"/>
<text text-anchor="middle" x="222" y="-123.2" font-family="Helvetica,Arial,sans-serif" font-size="14.00">1</text>
</g>
<!-- 1&#45;&gt;4 -->
<g id="edge3" class="edge">
<title>1&#45;&gt;4</title>
<path fill="none" stroke="black" d="M237.36,-118.91C243.58,-114.71 251.03,-109.92 258,-106 269.23,-99.69 282.06,-93.47 293.07,-88.42"/>
<polygon fill="black" stroke="black" points="294.27,-91.72 301.96,-84.42 291.4,-85.33 294.27,-91.72"/>
<text text-anchor="middle" x="271.12" y="-107.7" font-family="Helvetica,Arial,sans-serif" font-size="14.00">0/1</text>
</g>
<!-- 1&#45;&gt;5 -->
<g id="edge2" class="edge">
<title>1&#45;&gt;5</title>
<path fill="none" stroke="black" d="M240.16,-128.5C270.53,-127.42 335.66,-124.28 390,-116 392.36,-115.64 394.79,-115.21 397.23,-114.74"/>
<polygon fill="black" stroke="black" points="397.85,-118.18 406.88,-112.65 396.37,-111.34 397.85,-118.18"/>
<text text-anchor="middle" x="320.25" y="-126.78" font-family="Helvetica,Arial,sans-serif" font-size="14.00">11/21</text>
</g>
<!-- 3 -->
<g id="node4" class="node">
<title>3</title>
<ellipse fill="none" stroke="black" cx="123.75" cy="-72" rx="18" ry="18"/>
<text text-anchor="middle" x="123.75" y="-66.2" font-family="Helvetica,Arial,sans-serif" font-size="14.00">3</text>
</g>
<!-- 3&#45;&gt;4 -->
<g id="edge6" class="edge">
<title>3&#45;&gt;4</title>
<path fill="none" stroke="black" d="M142.01,-72.44C175.53,-73.31 249.74,-75.21 290.7,-76.27"/>
<polygon fill="black" stroke="black" points="290.43,-79.76 300.52,-76.52 290.61,-72.76 290.43,-79.76"/>
<text text-anchor="middle" x="222" y="-76.61" font-family="Helvetica,Arial,sans-serif" font-size="14.00">5/5</text>
</g>
<!-- 3&#45;&gt;1 -->
<g id="edge4" class="edge">
<title>3&#45;&gt;1</title>
<path fill="none" stroke="black" d="M140.29,-80.21C152.78,-86.91 170.7,-96.75 186,-106 189.64,-108.2 193.43,-110.59 197.13,-112.98"/>
<polygon fill="black" stroke="black" points="194.96,-115.74 205.24,-118.3 198.8,-109.89 194.96,-115.74"/>
<text text-anchor="middle" x="172.88" y="-107.7" font-family="Helvetica,Arial,sans-serif" font-size="14.00">4/11</text>
</g>
<!-- 2 -->
<g id="node5" class="node">
<title>2</title>
<ellipse fill="none" stroke="black" cx="222" cy="-18" rx="18" ry="18"/>
<text text-anchor="middle" x="222" y="-12.2" font-family="Helvetica,Arial,sans-serif" font-size="14.00">2</text>
</g>
<!-- 3&#45;&gt;2 -->
<g id="edge5" class="edge">
<title>3&#45;&gt;2</title>
<path fill="none" stroke="black" d="M137.33,-59.98C143.7,-54.32 151.76,-47.79 159.75,-43 170.35,-36.65 182.87,-31.22 193.81,-27.06"/>
<polygon fill="black" stroke="black" points="194.86,-30.4 203.07,-23.71 192.48,-23.82 194.86,-30.4"/>
<text text-anchor="middle" x="172.88" y="-44.7" font-family="Helvetica,Arial,sans-serif" font-size="14.00">1/2</text>
</g>
<!-- 2&#45;&gt;4 -->
<g id="edge7" class="edge">
<title>2&#45;&gt;4</title>
<path fill="none" stroke="black" d="M239.7,-22.88C252.51,-27.07 270.31,-33.88 284.25,-43 289.74,-46.59 295.12,-51.13 299.94,-55.7"/>
<polygon fill="black" stroke="black" points="297.36,-58.06 306.88,-62.71 302.33,-53.14 297.36,-58.06"/>
<text text-anchor="middle" x="271.12" y="-44.7" font-family="Helvetica,Arial,sans-serif" font-size="14.00">9/12</text>
</g>
<!-- 0 -->
<g id="node6" class="node">
<title>0</title>
<ellipse fill="none" stroke="black" cx="18" cy="-72" rx="18" ry="18"/>
<text text-anchor="middle" x="18" y="-66.2" font-family="Helvetica,Arial,sans-serif" font-size="14.00">0</text>
</g>
<!-- 0&#45;&gt;1 -->
<g id="edge8" class="edge">
<title>0&#45;&gt;1</title>
<path fill="none" stroke="black" d="M33.98,-81.08C40.05,-84.5 47.21,-88.23 54,-91 99.24,-109.43 111.9,-111.14 159.75,-121 170.32,-123.18 182.04,-124.88 192.38,-126.14"/>
<polygon fill="black" stroke="black" points="191.89,-129.61 202.22,-127.26 192.68,-122.65 191.89,-129.61"/>
<text text-anchor="middle" x="123.75" y="-118.86" font-family="Helvetica,Arial,sans-serif" font-size="14.00">7/7</text>
</g>
<!-- 0&#45;&gt;3 -->
<g id="edge9" class="edge">
<title>0&#45;&gt;3</title>
<path fill="none" stroke="black" d="M36.13,-72C51.9,-72 75.6,-72 94.22,-72"/>
<polygon fill="black" stroke="black" points="94.08,-75.5 104.08,-72 94.08,-68.5 94.08,-75.5"/>
<text text-anchor="middle" x="70.88" y="-73.7" font-family="Helvetica,Arial,sans-serif" font-size="14.00">10/10</text>
</g>
<!-- 0&#45;&gt;2 -->
<g id="edge10" class="edge">
<title>0&#45;&gt;2</title>
<path fill="none" stroke="black" d="M33.72,-62.9C50.49,-53.01 79.03,-37.6 105.75,-30 134.58,-21.79 168.9,-19.07 192.55,-18.24"/>
<polygon fill="black" stroke="black" points="192.44,-21.74 202.34,-17.99 192.26,-14.74 192.44,-21.74"/>
<text text-anchor="middle" x="123.75" y="-31.7" font-family="Helvetica,Arial,sans-serif" font-size="14.00">8/8</text>
</g>
</g>
</svg>
